# xmcd CD database file
#
# Track frame offsets:
#	182
#	21055
#	43552
#	71622
#	86597
#	94725
#	121382
#	126577
#	151702
#	173655
#	189352
#	212730
#	226757
#
# Disc length: 3332 seconds
#
# Revision: 3
# Processed by: cddbd v1.5.2PL0 Copyright (c) Steve Scherf et al.
# Submitted via: CDex 1.51
#
DISCID=a10d020d
DTITLE=John Thulin and The Whad'Ya Know? Band - John Thulin and The Whad'Ya Know? Band
DYEAR=1990
DGENRE=Jazz
TTITLE0=Blues In F
TTITLE1=I Told You So
TTITLE2=Undercover Blues
TTITLE3=Extra Innings
TTITLE4=Boogie #2
TTITLE5=Monk's Uncle
TTITLE6=Whad'Ya Know
TTITLE7=Strollin'
TTITLE8=Joelle
TTITLE9=The Band
TTITLE10=Tear It Down
TTITLE11=Sylvia's Habit
TTITLE12=Blues In G
EXTD=submitted by lee@brave.com YEAR: 1990
EXTT0=
EXTT1=
EXTT2=
EXTT3=
EXTT4=
EXTT5=
EXTT6=
EXTT7=
EXTT8=
EXTT9=
EXTT10=
EXTT11=
EXTT12=
PLAYORDER=
